<svg width="67" height="67" viewBox="0 0 67 67" fill="none" xmlns="http://www.w3.org/2000/svg">
<g opacity="0.6">
<path d="M30.9148 14.6731C35.177 14.6731 38.6323 11.3884 38.6323 7.33656C38.6323 3.28469 35.177 0 30.9148 0C26.6525 0 23.1973 3.28469 23.1973 7.33656C23.1973 11.3884 26.6525 14.6731 30.9148 14.6731Z" fill="#3BDE7C"/>
<path d="M46.0311 17.9434C49.9075 17.9434 53.05 14.956 53.05 11.2709C53.05 7.58586 49.9075 4.59851 46.0311 4.59851C42.1547 4.59851 39.0122 7.58586 39.0122 11.2709C39.0122 14.956 42.1547 17.9434 46.0311 17.9434Z" fill="#3BDE7C"/>
<path d="M56.824 26.7185C60.3123 26.7185 63.1402 24.0303 63.1402 20.7141C63.1402 17.398 60.3123 14.7097 56.824 14.7097C53.3357 14.7097 50.5078 17.398 50.5078 20.7141C50.5078 24.0303 53.3357 26.7185 56.824 26.7185Z" fill="#3BDE7C"/>
<path d="M66.1005 37.3469C66.5972 34.4377 64.5191 31.6966 61.4589 31.2244C58.3988 30.7522 55.5153 32.7277 55.0186 35.6368C54.5218 38.5459 56.5999 41.287 59.6601 41.7593C62.7203 42.2315 65.6037 40.256 66.1005 37.3469Z" fill="#3BDE7C"/>
<path d="M55.9064 55.3874C58.6185 55.3874 60.8171 53.2973 60.8171 50.719C60.8171 48.1408 58.6185 46.0507 55.9064 46.0507C53.1942 46.0507 50.9956 48.1408 50.9956 50.719C50.9956 53.2973 53.1942 55.3874 55.9064 55.3874Z" fill="#3BDE7C"/>
<path d="M44.2707 64.7163C46.597 64.7163 48.4829 62.9236 48.4829 60.7121C48.4829 58.5006 46.597 56.7079 44.2707 56.7079C41.9444 56.7079 40.0586 58.5006 40.0586 60.7121C40.0586 62.9236 41.9444 64.7163 44.2707 64.7163Z" fill="#3BDE7C"/>
<path d="M28.9045 67C30.8427 67 32.4139 65.5063 32.4139 63.6638C32.4139 61.8213 30.8427 60.3276 28.9045 60.3276C26.9662 60.3276 25.395 61.8213 25.395 63.6638C25.395 65.5063 26.9662 67 28.9045 67Z" fill="#3BDE7C"/>
<path d="M14.0992 61.4306C15.6493 61.4306 16.9059 60.236 16.9059 58.7624C16.9059 57.2888 15.6493 56.0942 14.0992 56.0942C12.5491 56.0942 11.2925 57.2888 11.2925 58.7624C11.2925 60.236 12.5491 61.4306 14.0992 61.4306Z" fill="#3BDE7C"/>
<path d="M3.98781 49.3713C5.14984 49.3713 6.09184 48.4758 6.09184 47.3711C6.09184 46.2664 5.14984 45.3709 3.98781 45.3709C2.82579 45.3709 1.88379 46.2664 1.88379 47.3711C1.88379 48.4758 2.82579 49.3713 3.98781 49.3713Z" fill="#3BDE7C"/>
<path d="M1.40541 34.0068C2.18159 34.0068 2.81082 33.4086 2.81082 32.6708C2.81082 31.9329 2.18159 31.3347 1.40541 31.3347C0.629221 31.3347 0 31.9329 0 32.6708C0 33.4086 0.629221 34.0068 1.40541 34.0068Z" fill="#3BDE7C"/>
<path d="M7.06391 19.4385C6.92459 19.4401 6.78793 19.4022 6.6713 19.3297C6.55467 19.2573 6.46333 19.1535 6.40889 19.0316C6.35445 18.9097 6.33936 18.7751 6.36555 18.645C6.39173 18.5149 6.45801 18.3952 6.55595 18.301C6.65389 18.2068 6.77908 18.1424 6.91561 18.116C7.05214 18.0895 7.19385 18.1023 7.32272 18.1526C7.4516 18.203 7.56184 18.2886 7.63942 18.3986C7.717 18.5086 7.75843 18.6381 7.75844 18.7705C7.75845 18.9463 7.68554 19.1151 7.55552 19.2401C7.4255 19.3652 7.24886 19.4365 7.06391 19.4385Z" fill="#3BDE7C"/>
</g>
</svg>
